<svg width="108" height="108" viewBox="0 0 108 108" fill="none" xmlns="http://www.w3.org/2000/svg">
<path fill-rule="evenodd" clip-rule="evenodd" d="M53.946 107.122C83.527 107.122 107.507 83.142 107.507 53.561C107.507 23.98 83.527 0 53.947 0C24.364 0 0.384033 23.98 0.384033 53.561C0.384033 83.142 24.365 107.122 53.946 107.122Z" fill="#DE5833"/>
<path fill-rule="evenodd" clip-rule="evenodd" d="M61.478 93.522C61.478 93.104 61.581 93.009 60.251 90.357C56.716 83.278 53.163 73.298 54.779 66.862C55.073 65.692 51.449 23.558 48.887 22.201C46.039 20.683 42.536 18.276 39.331 17.741C37.705 17.481 35.573 17.603 33.906 17.828C33.61 17.868 33.598 18.4 33.881 18.496C34.975 18.866 36.304 19.51 37.087 20.484C37.235 20.668 37.036 20.958 36.8 20.966C36.062 20.994 34.723 21.303 32.956 22.804C32.752 22.977 32.921 23.299 33.184 23.247C36.981 22.497 40.858 22.867 43.144 24.943C43.292 25.078 43.214 25.32 43.021 25.373C23.19 30.76 27.117 48.01 32.396 69.177C37.05 87.843 38.831 93.987 39.408 95.904C39.4383 96.0093 39.4923 96.1062 39.5658 96.1875C39.6392 96.2688 39.7303 96.3322 39.832 96.373C46.682 99.07 61.478 99.178 61.478 94.568V93.522Z" fill="#DDDDDD"/>
<path d="M64.198 97.4981C61.792 98.4391 57.084 98.8581 54.365 98.8581C50.377 98.8581 44.635 98.2301 42.544 97.2881C41.251 93.3121 37.384 80.9851 33.566 65.3321L33.192 63.8021L33.189 63.7901C28.649 45.2481 24.941 30.1031 45.263 25.3451C45.448 25.3021 45.539 25.0801 45.416 24.9341C43.085 22.1681 38.716 21.2611 33.194 23.1661C32.967 23.2451 32.77 23.0161 32.911 22.8221C33.994 21.3291 36.111 20.1821 37.155 19.6791C37.371 19.5751 37.358 19.2591 37.13 19.1871C36.0967 18.8631 35.0422 18.6115 33.974 18.4341C33.664 18.3841 33.636 17.8541 33.947 17.8121C41.777 16.7581 49.953 19.1091 54.056 24.2771C54.095 24.326 54.1498 24.3599 54.211 24.3731C69.235 27.5991 70.311 51.3501 68.58 52.4321C68.239 52.6451 67.146 52.5221 65.703 52.3621C59.857 51.7071 48.281 50.4121 57.835 68.2181C57.929 68.3941 57.805 68.6271 57.607 68.6581C52.219 69.4951 59.124 86.3781 64.198 97.4981Z" fill="white"/>
<path d="M70.9189 75.9039C69.7749 75.3739 65.3769 78.5279 62.4579 80.9489C61.8479 80.0859 60.6979 79.4589 58.1029 79.9089C55.8329 80.3049 54.5789 80.8519 54.0189 81.7959C50.4349 80.4369 44.4049 78.3399 42.9489 80.3659C41.3559 82.5799 43.3459 93.0529 45.4609 94.4129C46.5649 95.1229 51.8469 91.7279 54.6049 89.3869C55.0499 90.0139 55.7669 90.3729 57.2389 90.3389C59.4669 90.2869 63.0799 89.7689 63.6399 88.7309C63.6739 88.6679 63.7039 88.5939 63.7289 88.5089C66.5639 89.5689 71.5529 90.6889 72.6679 90.5229C75.5729 90.0859 72.2629 76.5269 70.9189 75.9039Z" fill="#3CA82B"/>
<path d="M62.7251 81.2599C62.8461 81.4739 62.9421 81.6999 63.0251 81.9299C63.4291 83.0599 64.0871 86.6559 63.5891 87.5439C63.0911 88.4319 59.8571 88.8609 57.8621 88.8949C55.8671 88.9289 55.4181 88.1999 55.0141 87.0699C54.6901 86.1659 54.5311 84.0399 54.5351 82.8229C54.4531 81.0169 55.1131 80.3829 58.1621 79.8889C60.4191 79.5239 61.6121 79.9489 62.3001 80.6749C65.5041 78.2849 70.8491 74.9099 71.3701 75.5269C73.9701 78.6019 74.2981 85.9209 73.7351 88.8669C73.5511 89.8289 64.9441 87.9119 64.9441 86.8739C64.9441 82.5629 63.8251 81.3809 62.7251 81.2599ZM43.8701 79.9129C44.5761 78.7969 50.2921 80.1849 53.4301 81.5809C53.4301 81.5809 52.7861 84.5029 53.8121 87.9449C54.1121 88.9519 46.5921 93.4329 45.6111 92.6619C44.4771 91.7709 42.3891 82.2579 43.8711 79.9119L43.8701 79.9129Z" fill="#4CBA3C"/>
<path fill-rule="evenodd" clip-rule="evenodd" d="M46.64 57.249C47.102 55.237 49.257 51.447 56.95 51.539C60.84 51.523 65.672 51.538 68.876 51.174C72.5221 50.7697 76.1014 49.8993 79.526 48.584C82.857 47.314 84.039 47.596 84.453 48.357C84.909 49.192 84.372 50.635 83.208 51.963C80.985 54.499 76.989 56.465 69.931 57.048C62.873 57.631 58.197 55.738 56.185 58.82C55.317 60.15 55.988 63.283 62.813 64.27C72.036 65.6 79.611 62.666 80.547 64.438C81.483 66.21 76.092 69.818 66.854 69.893C57.615 69.969 51.845 66.659 49.799 65.013C47.202 62.926 46.042 59.881 46.64 57.249Z" fill="#FFCC33"/>
<g opacity="0.8">
<path d="M58.4041 35.256C58.9201 34.412 60.0621 33.761 61.9321 33.761C63.8021 33.761 64.6821 34.505 65.2911 35.335C65.4151 35.503 65.2271 35.702 65.0351 35.619L64.8951 35.558C64.2111 35.259 63.3711 34.892 61.9321 34.872C60.3941 34.85 59.4241 35.235 58.8121 35.568C58.6071 35.679 58.2821 35.456 58.4041 35.256ZM37.3511 36.335C39.1671 35.576 40.5941 35.675 41.6031 35.913C41.8161 35.963 41.9631 35.735 41.7931 35.598C41.0101 34.966 39.2581 34.182 36.9721 35.034C34.9331 35.794 33.9721 37.374 33.9661 38.413C33.9651 38.658 34.4691 38.679 34.5991 38.471C34.9511 37.911 35.5361 37.094 37.3511 36.335Z" fill="#14307E"/>
<path fill-rule="evenodd" clip-rule="evenodd" d="M63.521 46.7989C61.915 46.7989 60.613 45.4999 60.613 43.9019C60.613 42.3039 61.915 41.0049 63.521 41.0049C65.126 41.0049 66.428 42.3039 66.428 43.9019C66.428 45.4999 65.126 46.7989 63.521 46.7989ZM65.568 42.9429C65.568 42.7433 65.4887 42.5519 65.3476 42.4108C65.2065 42.2697 65.0151 42.1904 64.8155 42.1904C64.6159 42.1904 64.4245 42.2697 64.2834 42.4108C64.1423 42.5519 64.063 42.7433 64.063 42.9429C64.063 43.1425 64.1423 43.3339 64.2834 43.475C64.4245 43.6161 64.6159 43.6954 64.8155 43.6954C65.0151 43.6954 65.2065 43.6161 65.3476 43.475C65.4887 43.3339 65.568 43.1425 65.568 42.9429ZM44.258 45.9069C44.2573 46.3512 44.1691 46.7911 43.9985 47.2014C43.8278 47.6116 43.5779 47.9842 43.2632 48.2979C42.9485 48.6116 42.5751 48.8602 42.1643 49.0296C41.7535 49.1989 41.3133 49.2857 40.869 49.2849C38.999 49.2849 37.48 47.7729 37.48 45.9069C37.48 44.0409 39 42.5289 40.869 42.5289C41.7662 42.5278 42.6272 42.883 43.2626 43.5164C43.8981 44.1498 44.2561 45.0096 44.258 45.9069ZM43.259 44.7869C43.2513 44.5593 43.1555 44.3436 42.9918 44.1853C42.828 44.027 42.6092 43.9385 42.3815 43.9385C42.1537 43.9385 41.9349 44.027 41.7712 44.1853C41.6075 44.3436 41.5117 44.5593 41.504 44.7869C41.504 45.0196 41.5964 45.2428 41.761 45.4074C41.9256 45.5719 42.1487 45.6644 42.3815 45.6644C42.6142 45.6644 42.8374 45.5719 43.002 45.4074C43.1665 45.2428 43.259 45.0196 43.259 44.7869Z" fill="#14307E"/>
</g>
<path fill-rule="evenodd" clip-rule="evenodd" d="M53.946 98.544C78.789 98.544 98.929 78.404 98.929 53.561C98.929 28.718 78.789 8.57804 53.946 8.57804C29.103 8.57804 8.96303 28.718 8.96303 53.561C8.96303 78.404 29.103 98.544 53.946 98.544ZM53.946 102.728C81.1 102.728 103.113 80.715 103.113 53.561C103.113 26.407 81.1 4.39404 53.946 4.39404C26.792 4.39404 4.78003 26.407 4.78003 53.56C4.78003 80.713 26.793 102.727 53.947 102.727L53.946 102.728Z" fill="white"/>
</svg>
