<svg width="108" height="108" viewBox="0 0 108 108" fill="none" xmlns="http://www.w3.org/2000/svg">
<g clip-path="url(#clip0_502_99)">
<path d="M0 54C0 24.1758 24.1704 0 54 0C83.8188 0 108 24.1758 108 54C108 83.8242 83.8188 108 54 108C24.1704 108 0 83.8242 0 54Z" fill="#FC3F1D"/>
<path d="M60.9119 30.5967H55.9223C46.7747 30.5967 41.9633 35.2299 41.9633 42.0609C41.9633 49.7829 45.2897 53.4009 52.1207 58.0395L57.7637 61.8411L41.5475 86.0709H29.4299L43.9829 64.3953C35.6129 58.3959 30.9149 52.5693 30.9149 42.7143C30.9149 30.3591 39.5279 21.9243 55.8629 21.9243H72.0791V86.0115H60.9119V30.5967Z" fill="white"/>
</g>
<defs>
<clipPath id="clip0_502_99">
<rect width="108" height="108" fill="white"/>
</clipPath>
</defs>
</svg>
