<?xml version="1.0" encoding="utf-8"?>
<!-- Generator: Adobe Illustrator 23.0.3, SVG Export Plug-In . SVG Version: 6.00 Build 0)  -->
<svg version="1.0" id="Слой_1" xmlns="http://www.w3.org/2000/svg" xmlns:xlink="http://www.w3.org/1999/xlink" x="0px" y="0px"
	 viewBox="0 0 1502.4 456" style="enable-background:new 0 0 1502.4 456;" xml:space="preserve">
<style type="text/css">
	.st0{fill:#00809D;}
	.st1{fill:#615AFF;}
</style>
<g>
	<g>
		<path class="st0" d="M590.9,176.9c-3.8-3.5-5.6-8.2-5.6-14.1c0-5.7,1.8-9.9,5.5-12.7c3.7-2.8,8.9-4.2,15.7-4.2h51
			c1.5-0.1,3-0.6,4.7-1.5c1.7-0.9,3.2-2.2,4.5-3.7c3.3-3.8,5-8.3,5-13.6c0-5.1-1.7-9.7-5.2-13.6c-1.4-1.6-2.9-2.8-4.6-3.6
			c-1.7-0.8-3.3-1.2-4.8-1.2h-21.5c-7.6,0-14.9-1.2-21.7-3.7c-6.8-2.5-12.8-6-17.8-10.6c-5.1-4.7-9.2-10.2-12-16.5
			c-2.9-6.3-4.3-13.2-4.3-20.7c0-16.1,5.5-29.6,16.4-40.5c5.1-5.1,11.1-9.1,17.9-12c6.8-2.8,14-4.3,21.6-4.3h45.3
			c6.7,0,12,1.5,15.8,4.6c3.8,3.1,5.7,7.5,5.7,13.2c0,6.2-1.9,11-5.6,14.2c-3.8,3.2-9,4.8-15.8,4.8h-51c-1.4,0-2.8,0.3-4.3,1
			s-3,1.7-4.3,3c-1.5,1.5-2.7,3.4-3.6,5.9c-0.9,2.5-1.4,5.1-1.4,7.7c0,4.8,1.6,9,4.8,12.5c1.3,1.5,2.7,2.6,4.2,3.5
			c1.5,0.9,2.9,1.4,4.2,1.4h22.3c7.7,0,15,1.3,21.9,3.9s12.9,6.2,18,10.9c5.2,4.8,9.3,10.4,12.2,16.9c2.9,6.5,4.3,13.5,4.3,21.1
			c0,7.5-1.4,14.7-4.2,21.6c-2.8,6.8-6.7,12.9-11.8,18.1c-5.1,5.3-10.9,9.5-17.6,12.6c-6.7,3.1-13.8,4.8-21.3,5h-47
			C599.9,182.2,594.7,180.5,590.9,176.9z"/>
		<path class="st0" d="M740.7,176.6c-3.3-3.5-5-7.6-5-12.4V18.6c0-2.5,0.5-4.8,1.4-7.1c0.9-2.2,2.2-4.2,3.9-5.9
			c3.6-3.6,7.9-5.4,13.1-5.4h80.9c5.1,0,9.4,1.8,12.9,5.4c1.6,1.7,2.8,3.6,3.7,5.9c0.9,2.3,1.4,4.6,1.4,7.1c0,2.5-0.5,4.9-1.4,7.2
			c-0.9,2.3-2.2,4.3-3.7,5.9c-3.6,3.6-7.9,5.4-12.9,5.4h-62.5v34.6h46.8c5,0,9.4,1.7,12.9,5.1c3.6,3.6,5.4,7.9,5.4,12.9
			c0,5.1-1.8,9.3-5.4,12.7c-3.5,3.3-7.8,5-12.9,5h-46.8v38.4h62.5c5.1,0,9.4,1.8,12.9,5.4c1.6,1.7,2.8,3.6,3.7,5.9
			c0.9,2.3,1.4,4.7,1.4,7.2c0,5.2-1.7,9.6-5.1,12.9c-3.6,3.4-7.9,5.1-12.9,5.1h-82.2C747.7,181.8,743.7,179.9,740.7,176.6z"/>
		<path class="st0" d="M881.2,178.2c-3.7-3.5-5.5-7.9-5.5-13.2V72.3c0-10.4,1.5-20,4.5-28.8c3-8.8,7.3-16.4,13-22.9
			c5.8-6.5,12.8-11.5,21.1-15.1c8.3-3.5,17.5-5.3,27.8-5.3c10.4,0,19.8,1.7,28.2,5.2c8.4,3.4,15.6,8.4,21.6,14.9
			c5.9,6.4,10.4,14.3,13.5,23.5c3.1,9.2,4.7,19.5,4.7,30.8V165c0,5.1-1.8,9.6-5.5,13.2c-1.7,1.7-3.8,3-6.1,3.9
			c-2.3,1-4.8,1.4-7.2,1.4c-2.7,0-5.1-0.5-7.4-1.4c-2.3-1-4.3-2.3-5.9-3.9c-3.8-3.6-5.6-8-5.6-13.2v-28.8h-58.7V165
			c0,5.3-1.8,9.7-5.5,13.2c-1.7,1.7-3.8,3-6.1,3.9c-2.3,1-4.8,1.4-7.2,1.4C889.4,183.6,884.9,181.8,881.2,178.2z M972.1,98.6v-24
			c0-11.8-2.5-20.8-7.4-27.2c-5-6.4-12.2-9.6-21.8-9.6c-9.6,0-17,3-22,8.9c-5,5.9-7.5,15.3-7.5,28v23.8H972.1z"/>
		<path class="st0" d="M1049.2,177.3c-1.7-1.7-3-3.6-3.9-5.8c-1-2.2-1.4-4.5-1.4-7V18.6c0-2.5,0.5-4.8,1.4-7.1
			c1-2.2,2.3-4.2,3.9-5.9c3.6-3.6,7.9-5.4,12.9-5.4h51.7c9.4,0,18.2,1.7,26.7,5.2c8.4,3.5,15.7,8.4,22,14.6
			c6.4,6.4,11.4,13.8,14.8,22.2c3.4,8.4,5.2,17.6,5.2,27.7c0,12.5-3.2,24.1-9.5,34.7c-6.3,10.6-14.7,18.7-25.2,24.4l20.9,22
			c3.5,3.8,5.2,8.1,5.2,12.9c0,2.4-0.5,4.7-1.4,7c-1,2.2-2.3,4.2-4.1,6c-3.7,3.7-8,5.5-12.9,5.5c-5.1,0-9.2-1.8-12.4-5.4l-37.9-39.3
			h-24.7v26.6c0,2.5-0.5,4.8-1.4,7c-1,2.2-2.3,4.1-3.9,5.8c-3.5,3.5-7.8,5.2-12.9,5.2C1057,182.5,1052.7,180.8,1049.2,177.3z
			 M1114.3,101.2c4.1,0,8.1-0.8,12-2.5c3.9-1.7,7.2-4,10.1-7c2.9-3,5.2-6.4,6.9-10.1c1.7-3.7,2.5-7.6,2.5-11.6
			c0-4.2-0.9-8.5-2.5-12.8c-1.7-4.3-4-7.9-6.8-10.7c-2.9-2.9-6.3-5.2-10.2-6.9c-3.9-1.7-7.8-2.5-11.8-2.5h-33.9v64.2H1114.3z"/>
		<path class="st0" d="M1248.6,178.7c-8.2-3.4-15.4-8.1-21.6-14.3c-6.3-6.3-11.2-13.8-14.7-22.5c-3.5-8.6-5.2-18-5.2-28.2V70
			c0-10.2,1.7-19.6,5.2-28.2c3.5-8.6,8.4-16.1,14.7-22.5c6.2-6.1,13.3-10.9,21.6-14.3c8.2-3.4,17-5,26.2-5c13.4,0,25.3,3.2,35.8,9.5
			c7.9,4.8,15.1,11.8,21.6,21.2c2.6,3.8,3.9,7.8,3.9,12.1c0,4.9-1.8,9-5.5,12.5c-3.8,3.6-8.3,5.4-13.6,5.4c-5.8,0-10-2.2-12.7-6.5
			c-2.2-3.4-4-6-5.4-7.8c-1.4-1.8-3.1-3.4-5-4.7c-4.6-3.1-10.9-4.7-19-4.7c-9.1,0-16.3,2.6-21.5,7.7c-6.2,6-9.4,14.3-9.4,24.9V114
			c0,10.7,3.1,19,9.4,24.9c5.2,5.1,12.4,7.7,21.5,7.7c8,0,14.4-1.6,19.1-4.7c1.9-1.3,3.6-2.9,5.1-4.8s3.2-4.5,5.2-7.8
			c1.4-2.1,3.2-3.7,5.4-4.8c2.2-1.1,4.7-1.6,7.4-1.6c5.3,0,9.9,1.7,13.6,5.2c3.6,3.6,5.4,7.8,5.4,12.5c0,3.9-1.2,7.7-3.5,11.5
			c-2.3,3.8-5.6,7.9-9.7,12.2c-7.8,8-17.1,13.5-28,16.5c-5.8,1.7-12.5,2.6-20.1,2.6C1265.5,183.7,1256.8,182.1,1248.6,178.7z"/>
		<path class="st0" d="M1371.1,178.5c-1.7-1.7-3-3.6-3.9-5.8c-1-2.2-1.4-4.5-1.4-7V18c0-5,1.8-9.4,5.4-12.9
			c3.6-3.4,7.9-5.1,12.9-5.1c5,0,9.4,1.7,12.9,5.1c3.6,3.6,5.4,7.9,5.4,12.9v60.1h63.4V18c0-2.5,0.5-4.8,1.5-7
			c1-2.2,2.4-4.2,4.1-5.9c1.7-1.6,3.6-2.8,5.9-3.7c2.2-0.9,4.6-1.4,7.1-1.4c5,0,9.4,1.7,12.9,5.1c3.4,3.6,5.1,7.9,5.1,12.9v147.7
			c0,2.5-0.5,4.8-1.4,7c-1,2.2-2.3,4.1-3.9,5.8c-3.5,3.5-7.8,5.2-12.9,5.2c-2.5,0-4.8-0.5-7.1-1.4c-2.3-0.9-4.2-2.2-5.9-3.9
			c-1.7-1.7-3-3.6-3.9-5.8c-1-2.2-1.4-4.5-1.4-7v-50.8h-63.4v50.8c0,2.5-0.5,4.8-1.4,7c-1,2.2-2.3,4.1-3.9,5.8
			c-3.5,3.5-7.8,5.2-12.9,5.2C1378.9,183.7,1374.6,182,1371.1,178.5z"/>
	</g>
	<g>
		<path class="st1" d="M553.7,390.4c-8.4-3.4-15.7-8.2-22-14.3c-6.4-6.2-11.4-13.7-15-22.3c-3.6-8.6-5.4-18-5.4-28.2v-43.8
			c0-10.2,1.8-19.6,5.4-28.2c3.6-8.6,8.6-16.1,15-22.5c6.3-6.1,13.7-10.9,22-14.3c8.4-3.4,17.1-5,26.3-5c9.2,0,17.9,1.7,26.2,5
			c8.3,3.4,15.6,8.1,22,14.3c6.4,6.3,11.4,13.8,15,22.5c3.6,8.6,5.4,18,5.4,28.2v43.8c0,10.2-1.8,19.6-5.4,28.2
			c-3.6,8.6-8.6,16.1-15,22.3c-6.3,6.2-13.7,10.9-22,14.3c-8.3,3.4-17.1,5.1-26.2,5.1C570.9,395.5,562.1,393.8,553.7,390.4z
			 M592,356.5c3.8-1.3,7.1-3.3,9.9-5.9c6.5-5.9,9.8-14.1,9.8-24.8v-44.3c0-5.4-0.9-10.2-2.5-14.4c-1.7-4.2-4.1-7.6-7.2-10.4
			c-2.8-2.7-6.2-4.6-9.9-5.9c-3.8-1.3-7.8-1.9-12-1.9c-4.2,0-8.2,0.7-12.1,2c-3.8,1.3-7.1,3.3-10,5.9c-3.1,2.8-5.5,6.2-7.2,10.4
			c-1.7,4.2-2.5,9-2.5,14.4v44.3c0,10.7,3.3,18.9,9.8,24.8c2.8,2.6,6.2,4.5,10,5.9c3.8,1.3,7.8,2,12.1,2
			C584.3,358.4,588.3,357.8,592,356.5z"/>
		<path class="st1" d="M688,389c-1.7-1.7-3-3.6-3.9-5.8c-1-2.2-1.4-4.5-1.4-7V230.3c0-2.5,0.5-4.8,1.4-7.1c1-2.2,2.3-4.2,3.9-5.9
			c3.6-3.6,7.9-5.4,12.9-5.4h51.7c9.4,0,18.2,1.7,26.7,5.2c8.4,3.5,15.7,8.4,22,14.6c6.4,6.4,11.4,13.8,14.8,22.2
			c3.4,8.4,5.2,17.6,5.2,27.7c0,12.5-3.2,24.1-9.5,34.7c-6.3,10.6-14.7,18.7-25.2,24.4l20.9,22c3.5,3.8,5.2,8.1,5.2,12.9
			c0,2.4-0.5,4.7-1.4,7c-1,2.2-2.3,4.2-4.1,6c-3.7,3.7-8,5.5-12.9,5.5c-5.1,0-9.2-1.8-12.4-5.4L744,349.6h-24.7v26.6
			c0,2.5-0.5,4.8-1.4,7c-1,2.2-2.3,4.1-3.9,5.8c-3.5,3.5-7.8,5.2-12.9,5.2C695.8,394.2,691.5,392.5,688,389z M753.2,313
			c4.1,0,8.1-0.8,12-2.6c3.9-1.7,7.2-4,10.1-7c2.9-3,5.2-6.4,6.9-10.1c1.7-3.7,2.5-7.6,2.5-11.6c0-4.2-0.9-8.5-2.5-12.8
			c-1.7-4.3-4-7.9-6.8-10.7c-2.9-2.9-6.3-5.2-10.2-6.9c-3.9-1.7-7.8-2.5-11.8-2.5h-33.9V313H753.2z"/>
		<path class="st1" d="M916.1,390c-3.7-3.5-5.5-7.9-5.5-13.2V284c0-10.4,1.5-20,4.5-28.8c3-8.8,7.3-16.4,13-22.9
			c5.8-6.5,12.8-11.5,21.1-15.1s17.5-5.3,27.8-5.3c10.4,0,19.8,1.7,28.2,5.2c8.4,3.4,15.6,8.4,21.6,14.9
			c5.9,6.4,10.4,14.3,13.5,23.5c3.1,9.2,4.7,19.5,4.7,30.8v90.4c0,5.1-1.8,9.6-5.5,13.2c-1.7,1.7-3.8,3-6.1,3.9
			c-2.3,1-4.8,1.4-7.2,1.4c-2.7,0-5.1-0.5-7.4-1.4c-2.3-1-4.3-2.3-5.9-3.9c-3.8-3.6-5.6-8-5.6-13.2V348h-58.7v28.8
			c0,5.3-1.8,9.7-5.5,13.2c-1.7,1.7-3.8,3-6.1,3.9c-2.3,1-4.8,1.4-7.2,1.4C924.3,395.3,919.9,393.5,916.1,390z M1007,310.3v-24
			c0-11.7-2.5-20.8-7.4-27.2c-5-6.4-12.2-9.6-21.8-9.6c-9.6,0-17,3-22,8.9s-7.5,15.3-7.5,28v23.8H1007z"/>
		<path class="st1" d="M1079.1,388.6c-3.8-3.5-5.6-8.2-5.6-14.1c0-5.7,1.8-9.9,5.5-12.7c3.7-2.8,8.9-4.2,15.7-4.2h51
			c1.5-0.1,3-0.6,4.7-1.5c1.7-0.9,3.2-2.2,4.5-3.7c3.3-3.8,5-8.3,5-13.6c0-5.1-1.7-9.7-5.2-13.6c-1.4-1.6-2.9-2.8-4.6-3.6
			c-1.7-0.8-3.3-1.2-4.8-1.2h-21.5c-7.6,0-14.9-1.2-21.7-3.7c-6.8-2.5-12.8-6-17.8-10.6c-5.1-4.7-9.2-10.2-12-16.5
			c-2.9-6.3-4.3-13.2-4.3-20.7c0-16.1,5.5-29.6,16.4-40.5c5.1-5.1,11.1-9.1,17.9-12c6.8-2.8,14-4.3,21.6-4.3h45.3
			c6.7,0,12,1.5,15.8,4.6c3.8,3.1,5.7,7.5,5.7,13.2c0,6.2-1.9,11-5.6,14.2c-3.8,3.2-9,4.8-15.8,4.8h-51c-1.4,0-2.8,0.3-4.3,1
			c-1.5,0.7-3,1.7-4.3,3c-1.5,1.5-2.7,3.4-3.6,5.9c-0.9,2.5-1.4,5-1.4,7.7c0,4.8,1.6,9,4.8,12.5c1.3,1.5,2.7,2.6,4.2,3.5
			c1.5,0.9,2.9,1.4,4.2,1.4h22.3c7.7,0,15,1.3,21.9,3.9c6.9,2.6,12.9,6.2,18,10.9c5.2,4.8,9.3,10.4,12.2,16.9
			c2.9,6.5,4.3,13.5,4.3,21.1c0,7.5-1.4,14.7-4.2,21.6c-2.8,6.8-6.7,12.9-11.8,18.1c-5.1,5.3-10.9,9.5-17.6,12.6
			c-6.7,3.1-13.8,4.8-21.3,5h-47C1088,394,1082.8,392.2,1079.1,388.6z"/>
		<path class="st1" d="M1235.1,392.6c-2.3-0.9-4.2-2.2-5.9-3.9c-1.7-1.7-3-3.6-3.9-5.8c-1-2.2-1.4-4.5-1.4-7V230
			c0-2.5,0.5-4.8,1.4-7c1-2.2,2.3-4.1,3.9-5.8c1.7-1.7,3.6-2.9,5.9-3.9c2.2-0.9,4.6-1.4,7.1-1.4c5.1,0,9.5,1.7,12.9,5.2
			c1.7,1.7,3,3.6,3.9,5.8c1,2.2,1.4,4.5,1.4,7v45.9l65.4-58.8c3.9-3.4,8.1-5.1,12.5-5.1c2.3,0,4.6,0.5,6.8,1.4c2.2,1,4.2,2.3,6,3.9
			c1.7,1.7,3.1,3.8,4.2,6.1c1.1,2.3,1.6,4.7,1.6,7.3c0,5.1-1.9,9.4-5.6,13.1l-63.8,56.9l66.4,62c3.5,3.5,5.2,7.7,5.2,12.7
			c0,2.5-0.5,4.8-1.4,7.1c-1,2.3-2.3,4.2-3.9,5.9c-1.7,1.7-3.8,3.1-6.1,4.1s-4.6,1.5-7,1.5c-4.9,0-9.1-1.8-12.8-5.5l-67.5-62.7v50.1
			c0,2.5-0.5,4.8-1.4,7c-1,2.2-2.3,4.1-3.9,5.8c-3.5,3.5-7.8,5.2-12.9,5.2C1239.7,394,1237.3,393.5,1235.1,392.6z"/>
	</g>
	<g>
		<g>
			<path class="st0" d="M181.4,456c-0.7,0-1.5,0-2.2-0.1c-9.5-0.7-18-5.9-23.1-13.9l-29.4-47.1C55.6,387.2,0,326.9,0,253.8
				c0-37.9,14.7-73.5,41.5-100.3c18.1-18.1,40.7-30.9,65.4-37.2c16-4,32.2,5.6,36.2,21.5c4.1,16-5.6,32.2-21.5,36.2
				c-14.4,3.7-27.5,11.1-38,21.6c-15.5,15.5-24.1,36.2-24.1,58.1c0,45.3,36.9,82.2,82.2,82.2h1.9c10.3,0,19.9,5.3,25.3,14l16.1,25.8
				l25.1-29.4c5.7-6.6,13.9-10.5,22.7-10.5h84.6c22,0,42.6-8.5,58.1-24.1c15.5-15.5,24.1-36.2,24.1-58.1c0-45.3-36.9-82.2-82.2-82.2
				h-87.9c-16.5,0-29.8-13.3-29.8-29.8s13.3-29.8,29.8-29.8h87.9c78.2,0,141.8,63.6,141.8,141.8c0,37.9-14.7,73.5-41.5,100.3
				c-26.8,26.8-62.4,41.5-100.3,41.5h-70.9l-42.6,49.9C198.4,452.2,190.1,456,181.4,456z"/>
		</g>
	</g>
	<g>
		<g>
			<path class="st1" d="M314.1,283.6h-87.9C148,283.6,84.4,220,84.4,141.8S148,0,226.2,0h175.7c78.2,0,141.8,63.6,141.8,141.8
				c0,16.5-13.3,29.8-29.8,29.8c-16.5,0-29.8-13.3-29.8-29.8c0-45.3-36.9-82.2-82.2-82.2H226.2c-45.3,0-82.2,36.9-82.2,82.2
				s36.9,82.2,82.2,82.2h87.9c16.5,0,29.8,13.3,29.8,29.8C343.9,270.3,330.5,283.6,314.1,283.6z"/>
		</g>
	</g>
</g>
</svg>
