<svg width="540" height="126" viewBox="0 0 540 126" fill="none" xmlns="http://www.w3.org/2000/svg">
<g clip-path="url(#clip0_916_76)">
<path d="M30.7999 125.6L19.9999 118.5C18.7999 118.8 17.4999 119 16.1999 119C10.8999 119 6.8999 117.4 4.0999 114.3C1.2999 111.2 -0.100098 106.6 -0.100098 100.6V67.9C-0.100098 62.1 1.2999 57.7 4.1999 54.6C7.0999 51.6 11.1999 50.1 16.5999 50.1C21.9999 50.1 26.0999 51.6 28.9999 54.6C31.8999 57.6 33.2999 62 33.2999 67.9V100.6C33.2999 106.2 31.9999 110.6 29.4999 113.8L35.2999 117.5L30.7999 125.6ZM16.6999 106.5C17.6999 106.5 18.3999 106.1 18.7999 105.4C19.1999 104.7 19.4999 103.8 19.5999 102.7C19.6999 101.6 19.7999 100.6 19.7999 99.7V68.1C19.7999 66.7 19.5999 65.4 19.1999 64.2C18.7999 63.1 17.9999 62.5 16.5999 62.5C15.2999 62.5 14.3999 63.1 13.9999 64.2C13.5999 65.3 13.3999 66.6 13.3999 68.1V100.1C13.3999 101 13.4999 102 13.5999 103C13.6999 104 13.9999 104.9 14.4999 105.6C14.8999 106.2 15.5999 106.5 16.6999 106.5Z" fill="#008080"/>
<path d="M50.6999 119C47.5999 119 45.2999 118.4 43.5999 117.1C41.9999 115.8 40.8999 114 40.2999 111.7C39.6999 109.4 39.3999 106.7 39.3999 103.6V60.6H53.1999V102C53.1999 104.3 53.3999 105.9 53.6999 106.8C54.0999 107.7 54.8999 108.2 56.1999 108.2C57.5999 108.2 58.4999 107.6 58.8999 106.3C59.2999 105 59.4999 103.4 59.4999 101.3V60.7H73.1999V118.4H59.5999V112.2C58.6999 114.4 57.6999 116.1 56.4999 117.2C55.1999 118.4 53.2999 119 50.6999 119Z" fill="#008080"/>
<path d="M78.7998 57.2V45.7H92.5998V57.2H78.7998ZM78.7998 118.4V60.7H92.5998V118.4H78.7998Z" fill="#008080"/>
<path d="M115.4 119C108.9 119 104.4 117.3 101.7 114C98.9999 110.7 97.5999 105.8 97.5999 99.4V81.7C97.5999 76.9 98.0999 72.9 99.0999 69.7C100.1 66.5 101.9 64.1 104.5 62.5C107.1 60.9 110.6 60.1 115.2 60.1C118.4 60.1 121.2 60.7 123.8 61.8C126.3 62.9 128.3 64.6 129.8 66.8C131.3 69 132 71.6 132 74.8V83.6H118V75.5C118 74.2 117.8 73 117.4 72.1C117 71.2 116.2 70.7 114.9 70.7C112.6 70.7 111.5 72.3 111.5 75.5V103.5C111.5 104.7 111.8 105.8 112.3 106.7C112.8 107.7 113.7 108.2 114.8 108.2C116 108.2 116.8 107.7 117.3 106.8C117.8 105.8 118 104.7 118 103.4V93.7H132V103.8C132 107 131.3 109.7 129.9 112C128.5 114.3 126.5 116 124 117.2C121.4 118.4 118.6 119 115.4 119Z" fill="#008080"/>
<path d="M136.7 118.4V50.7H150.3V80.6L156.9 60.7H171.2L162.5 85.8L173.5 118.4H158.8L150.2 91.2V118.4H136.7Z" fill="#008080"/>
<path d="M191.4 119C186.5 119 182.6 117.5 179.6 114.4C176.6 111.3 175.1 107.1 175.1 101.6V70.4C175.1 63.8 176.4 58.8 179 55.3C181.6 51.8 185.8 50.1 191.7 50.1C194.9 50.1 197.8 50.7 200.3 51.9C202.8 53.1 204.8 54.8 206.2 57.2C207.6 59.6 208.4 62.5 208.4 66.1V77.8H194.9V67.8C194.9 65.8 194.6 64.4 194.1 63.7C193.6 63 192.8 62.6 191.7 62.6C190.4 62.6 189.6 63.1 189.2 64C188.8 64.9 188.5 66.1 188.5 67.6V101.5C188.5 103.4 188.8 104.7 189.3 105.5C189.9 106.3 190.6 106.7 191.7 106.7C192.9 106.7 193.7 106.2 194.1 105.3C194.6 104.4 194.8 103.1 194.8 101.6V89.2H208.4V102C208.4 107.9 206.9 112.3 203.9 114.9C200.9 117.7 196.7 119 191.4 119Z" fill="#1E3264"/>
<path d="M212.7 118.4V50.7H226.7V118.4H212.7Z" fill="#1E3264"/>
<path d="M232.2 57.2V45.7H246V57.2H232.2ZM232.2 118.4V60.7H246V118.4H232.2Z" fill="#1E3264"/>
<path d="M268.7 119C262.2 119 257.7 117.3 255 114C252.3 110.7 250.9 105.8 250.9 99.4V81.7C250.9 76.9 251.4 72.9 252.4 69.7C253.4 66.5 255.2 64.1 257.8 62.5C260.4 60.9 263.9 60.1 268.5 60.1C271.7 60.1 274.5 60.7 277.1 61.8C279.6 62.9 281.6 64.6 283.1 66.8C284.6 69 285.3 71.6 285.3 74.8V83.6H271.3V75.5C271.3 74.2 271.1 73 270.7 72.1C270.3 71.2 269.5 70.7 268.2 70.7C265.9 70.7 264.8 72.3 264.8 75.5V103.5C264.8 104.7 265.1 105.8 265.6 106.7C266.1 107.7 267 108.2 268.1 108.2C269.3 108.2 270.1 107.7 270.6 106.8C271.1 105.8 271.3 104.7 271.3 103.4V93.7H285.3V103.8C285.3 107 284.6 109.7 283.2 112C281.8 114.3 279.8 116 277.3 117.2C274.8 118.4 271.9 119 268.7 119Z" fill="#1E3264"/>
<path d="M290.1 118.4V50.7H303.7V80.6L310.3 60.7H324.6L315.9 85.8L326.9 118.4H312.2L303.6 91.2V118.4H290.1Z" fill="#1E3264"/>
<path d="M329 118.4V50.7H356V63.9H342.5V74.7H355.3V87.7H342.5V118.4H329Z" fill="#8C82BE"/>
<path d="M360.1 118.4V50.7H374.1V118.4H360.1Z" fill="#8C82BE"/>
<path d="M379.6 57.2V45.7H393.4V57.2H379.6ZM379.6 118.4V60.7H393.4V118.4H379.6Z" fill="#8C82BE"/>
<path d="M416.2 119C409.7 119 405.2 117.3 402.5 114C399.8 110.7 398.4 105.8 398.4 99.4V81.7C398.4 76.9 398.9 72.9 399.9 69.7C400.9 66.5 402.7 64.1 405.3 62.5C407.9 60.9 411.4 60.1 416 60.1C419.2 60.1 422 60.7 424.6 61.8C427.1 62.9 429.1 64.6 430.6 66.8C432.1 69 432.8 71.6 432.8 74.8V83.6H418.8V75.5C418.8 74.2 418.6 73 418.2 72.1C417.8 71.2 417 70.7 415.7 70.7C413.4 70.7 412.3 72.3 412.3 75.5V103.5C412.3 104.7 412.6 105.8 413.1 106.7C413.6 107.7 414.5 108.2 415.6 108.2C416.8 108.2 417.6 107.7 418.1 106.8C418.6 105.8 418.8 104.7 418.8 103.4V93.7H432.8V103.8C432.8 107 432.1 109.7 430.7 112C429.3 114.3 427.3 116 424.8 117.2C422.2 118.4 419.4 119 416.2 119Z" fill="#8C82BE"/>
<path d="M437.5 118.4V50.7H451.1V80.6L457.7 60.7H472L463.3 85.8L474.3 118.4H459.6L451 91.2V118.4H437.5Z" fill="#8C82BE"/>
<path d="M471.4 26.9L505 95.5L512.9 68.4L540 60.4L471.4 26.9Z" fill="#8C82BE"/>
<path d="M454.039 6.3143L450.928 9.42554L462.595 21.0927L465.706 17.9815L454.039 6.3143Z" fill="#8C82BE"/>
<path d="M444.59 24.6803L444.59 29.0803L461.09 29.0803L461.09 24.6803L444.59 24.6803Z" fill="#8C82BE"/>
<path d="M450.871 44.2935L453.983 47.4048L465.65 35.7376L462.539 32.6264L450.871 44.2935Z" fill="#8C82BE"/>
<path d="M469.19 53.8104L473.59 53.8104L473.59 37.3104L469.19 37.3104L469.19 53.8104Z" fill="#8C82BE"/>
<path d="M498.3 29.0905L498.3 24.6905L481.8 24.6905L481.8 29.0905L498.3 29.0905Z" fill="#8C82BE"/>
<path d="M492.033 9.49704L488.922 6.3858L477.255 18.053L480.366 21.1642L492.033 9.49704Z" fill="#8C82BE"/>
<path d="M473.7 0H469.3V16.5H473.7V0Z" fill="#8C82BE"/>
</g>
<defs>
<clipPath id="clip0_916_76">
<rect width="540" height="125.6" fill="white"/>
</clipPath>
</defs>
</svg>
